<svg xmlns="http://www.w3.org/2000/svg" width="400" height="400" viewBox="0 0 400 400"><defs><linearGradient id="brandGradient" x1="0%" x2="100%" y1="0%" y2="100%"><stop offset="0%" style="stop-color:#8b9d7c;stop-opacity:1"/><stop offset="100%" style="stop-color:#6b7c5d;stop-opacity:1"/></linearGradient><linearGradient id="goldGradient" x1="0%" x2="0%" y1="0%" y2="100%"><stop offset="0%" style="stop-color:#d4af37;stop-opacity:1"/><stop offset="100%" style="stop-color:#b8941c;stop-opacity:1"/></linearGradient></defs><circle cx="200" cy="200" r="190" fill="#f5f3ef" stroke="url(#brandGradient)" stroke-width="2"/><path stroke="#8b9d7c" stroke-width="2" d="M0-160 0-140M0 140 0 160M-160 0-140 0M140 0 160 0" opacity="0.15" transform="translate(200 200)"/><g transform="translate(200 130)"><path fill="url(#brandGradient)" d="M -25 80 L -15 20 L -10 -20 L 0 -60 L 10 -20 L 15 20 L 25 80 Z" opacity="0.9"/><path fill="none" stroke="#f5f3ef" stroke-width="1.5" d="M -10 -20 L 10 -20 M -15 20 L 15 20 M -20 50 L 20 50"/><circle cy="-60" r="3" fill="url(#goldGradient)"/></g><text x="200" y="260" fill="#2c3e28" font-family="Georgia, 'Times New Roman', serif" font-size="42" font-weight="600" letter-spacing="4" text-anchor="middle">EUROPEAN</text><text x="200" y="300" fill="#2c3e28" font-family="Georgia, 'Times New Roman', serif" font-size="42" font-weight="300" letter-spacing="6" text-anchor="middle">LIVING</text><path stroke="url(#goldGradient)" stroke-width="2" d="M120 310 280 310"/><text x="200" y="335" fill="#6b7c5d" font-family="Arial, sans-serif" font-size="12" font-weight="400" letter-spacing="2" text-anchor="middle">YOUR GUIDE TO EUROPE</text></svg>